<mxfile host="app.diagrams.net" agent="Mozilla/5.0 (Windows NT 10.0; Win64; x64) AppleWebKit/537.36 (KHTML, like Gecko) Chrome/130.0.0.0 Safari/537.36" version="24.7.14">
  <diagram name="Page-1" id="CrLthFBTei8RshZk1S5P">
    <mxGraphModel dx="864" dy="466" grid="1" gridSize="10" guides="1" tooltips="1" connect="1" arrows="1" fold="1" page="1" pageScale="1" pageWidth="850" pageHeight="1100" math="0" shadow="0">
      <root>
        <mxCell id="0" />
        <mxCell id="1" parent="0" />
        <mxCell id="BoYmpK9ckrPkbvIWxogE-1" value="" style="ellipse;html=1;shape=startState;fillColor=#000000;strokeColor=#ff0000;" vertex="1" parent="1">
          <mxGeometry x="110" y="60" width="30" height="30" as="geometry" />
        </mxCell>
        <mxCell id="BoYmpK9ckrPkbvIWxogE-2" value="" style="edgeStyle=orthogonalEdgeStyle;html=1;verticalAlign=bottom;endArrow=open;endSize=8;strokeColor=#ff0000;rounded=0;" edge="1" source="BoYmpK9ckrPkbvIWxogE-1" parent="1">
          <mxGeometry relative="1" as="geometry">
            <mxPoint x="125" y="150" as="targetPoint" />
          </mxGeometry>
        </mxCell>
        <mxCell id="BoYmpK9ckrPkbvIWxogE-3" value="display profle info form" style="rounded=1;whiteSpace=wrap;html=1;" vertex="1" parent="1">
          <mxGeometry x="70" y="150" width="120" height="60" as="geometry" />
        </mxCell>
        <mxCell id="BoYmpK9ckrPkbvIWxogE-31" style="edgeStyle=orthogonalEdgeStyle;rounded=0;orthogonalLoop=1;jettySize=auto;html=1;exitX=0.5;exitY=1;exitDx=0;exitDy=0;entryX=0.5;entryY=0;entryDx=0;entryDy=0;" edge="1" parent="1" source="BoYmpK9ckrPkbvIWxogE-5" target="BoYmpK9ckrPkbvIWxogE-16">
          <mxGeometry relative="1" as="geometry" />
        </mxCell>
        <mxCell id="BoYmpK9ckrPkbvIWxogE-5" value="edit profile info" style="rounded=1;whiteSpace=wrap;html=1;" vertex="1" parent="1">
          <mxGeometry x="65" y="260" width="120" height="60" as="geometry" />
        </mxCell>
        <mxCell id="BoYmpK9ckrPkbvIWxogE-9" value="" style="endArrow=classic;html=1;rounded=0;entryX=0.5;entryY=0;entryDx=0;entryDy=0;exitX=0.5;exitY=1;exitDx=0;exitDy=0;" edge="1" parent="1" target="BoYmpK9ckrPkbvIWxogE-5">
          <mxGeometry width="50" height="50" relative="1" as="geometry">
            <mxPoint x="125" y="210" as="sourcePoint" />
            <mxPoint x="127.5" y="280" as="targetPoint" />
          </mxGeometry>
        </mxCell>
        <mxCell id="BoYmpK9ckrPkbvIWxogE-13" value="" style="ellipse;html=1;shape=endState;fillColor=#000000;strokeColor=#ff0000;" vertex="1" parent="1">
          <mxGeometry x="600" y="610" width="30" height="30" as="geometry" />
        </mxCell>
        <mxCell id="BoYmpK9ckrPkbvIWxogE-30" style="edgeStyle=orthogonalEdgeStyle;rounded=0;orthogonalLoop=1;jettySize=auto;html=1;exitX=0.5;exitY=1;exitDx=0;exitDy=0;" edge="1" parent="1" source="BoYmpK9ckrPkbvIWxogE-16" target="BoYmpK9ckrPkbvIWxogE-17">
          <mxGeometry relative="1" as="geometry" />
        </mxCell>
        <mxCell id="BoYmpK9ckrPkbvIWxogE-33" style="edgeStyle=orthogonalEdgeStyle;rounded=0;orthogonalLoop=1;jettySize=auto;html=1;exitX=1;exitY=0.5;exitDx=0;exitDy=0;entryX=0;entryY=0.25;entryDx=0;entryDy=0;" edge="1" parent="1" source="BoYmpK9ckrPkbvIWxogE-16" target="BoYmpK9ckrPkbvIWxogE-26">
          <mxGeometry relative="1" as="geometry">
            <Array as="points">
              <mxPoint x="200" y="390" />
              <mxPoint x="200" y="440" />
              <mxPoint x="220" y="440" />
            </Array>
          </mxGeometry>
        </mxCell>
        <mxCell id="BoYmpK9ckrPkbvIWxogE-16" value="validate update info" style="rhombus;whiteSpace=wrap;html=1;" vertex="1" parent="1">
          <mxGeometry x="70" y="350" width="80" height="80" as="geometry" />
        </mxCell>
        <mxCell id="BoYmpK9ckrPkbvIWxogE-29" style="edgeStyle=orthogonalEdgeStyle;rounded=0;orthogonalLoop=1;jettySize=auto;html=1;exitX=1;exitY=0.5;exitDx=0;exitDy=0;entryX=0;entryY=0.5;entryDx=0;entryDy=0;" edge="1" parent="1" source="BoYmpK9ckrPkbvIWxogE-17" target="BoYmpK9ckrPkbvIWxogE-21">
          <mxGeometry relative="1" as="geometry">
            <mxPoint x="210" y="525" as="targetPoint" />
          </mxGeometry>
        </mxCell>
        <mxCell id="BoYmpK9ckrPkbvIWxogE-17" value="save update info" style="rounded=1;whiteSpace=wrap;html=1;" vertex="1" parent="1">
          <mxGeometry x="30" y="490" width="120" height="60" as="geometry" />
        </mxCell>
        <mxCell id="BoYmpK9ckrPkbvIWxogE-24" style="edgeStyle=orthogonalEdgeStyle;rounded=0;orthogonalLoop=1;jettySize=auto;html=1;exitX=0.5;exitY=1;exitDx=0;exitDy=0;entryX=0.5;entryY=0;entryDx=0;entryDy=0;" edge="1" parent="1" source="BoYmpK9ckrPkbvIWxogE-21" target="BoYmpK9ckrPkbvIWxogE-13">
          <mxGeometry relative="1" as="geometry" />
        </mxCell>
        <mxCell id="BoYmpK9ckrPkbvIWxogE-21" value="notify user of succesfull update" style="rounded=1;whiteSpace=wrap;html=1;" vertex="1" parent="1">
          <mxGeometry x="260" y="490" width="120" height="60" as="geometry" />
        </mxCell>
        <mxCell id="BoYmpK9ckrPkbvIWxogE-26" value="error message" style="rounded=1;whiteSpace=wrap;html=1;" vertex="1" parent="1">
          <mxGeometry x="290" y="410" width="120" height="60" as="geometry" />
        </mxCell>
        <mxCell id="BoYmpK9ckrPkbvIWxogE-32" value="valid info" style="text;html=1;align=center;verticalAlign=middle;resizable=0;points=[];autosize=1;strokeColor=none;fillColor=none;" vertex="1" parent="1">
          <mxGeometry x="95" y="460" width="70" height="30" as="geometry" />
        </mxCell>
        <mxCell id="BoYmpK9ckrPkbvIWxogE-34" value="invalid info" style="text;html=1;align=center;verticalAlign=middle;resizable=0;points=[];autosize=1;strokeColor=none;fillColor=none;" vertex="1" parent="1">
          <mxGeometry x="195" y="400" width="80" height="30" as="geometry" />
        </mxCell>
      </root>
    </mxGraphModel>
  </diagram>
</mxfile>
